<mxfile host="Electron" modified="2024-01-19T06:34:09.789Z" agent="Mozilla/5.0 (X11; Linux x86_64) AppleWebKit/537.36 (KHTML, like Gecko) draw.io/22.1.18 Chrome/120.0.6099.199 Electron/28.1.2 Safari/537.36" etag="0fAzzGU0Pg-Ux0YgcTme" version="22.1.18" type="device">
  <diagram name="Page-1" id="ZXPS7gb5zSfvIssBtCgZ">
    <mxGraphModel dx="1135" dy="703" grid="1" gridSize="10" guides="1" tooltips="1" connect="1" arrows="1" fold="1" page="1" pageScale="1" pageWidth="1654" pageHeight="1169" math="0" shadow="0">
      <root>
        <mxCell id="0" />
        <mxCell id="1" parent="0" />
        <mxCell id="KhbLEa4_fb1aOMbs3UsQ-3" value="&lt;br&gt;DICTIONARY&lt;br&gt;&lt;br&gt;&lt;br&gt;&quot;country&quot;: &quot;continent&quot;&lt;br&gt;&lt;br&gt;&quot;USA&quot;: &quot;n.a&quot;,&lt;br&gt;&quot;DEU&quot;: &quot;europe&quot;&lt;br&gt;...." style="rounded=0;whiteSpace=wrap;html=1;fontSize=22;verticalAlign=top;" parent="1" vertex="1">
          <mxGeometry x="710" y="1210" width="373" height="560" as="geometry" />
        </mxCell>
        <mxCell id="Y4W8C6CxUiJVroTrxwmG-1" value="" style="shape=image;verticalLabelPosition=bottom;labelBackgroundColor=default;verticalAlign=top;aspect=fixed;imageAspect=0;image=data:image/png,iVBORw0KGgoAAAANSUhEUgAAAwIAAAA+CAYAAACY7KzzAAAABHNCSVQICAgIfAhkiAAAIABJREFUeF7tnQtcVMe9x3/ltTxFgWTVNYK8FCQiRNcXUJ9JxJqGmEQbFW0/mptrbR4m1ZqbB2lya02jzW25Ji22NSRp0aTBxKs2UaIB44NEFKKgiOgSiBCBBAF50/ufs7u4LGeXRRYWl/98PpvIOXPmzHxnzjnzn/k/fhAcNuHf4MQEmAATYAJMgAkwASbABJjAoCLgMKhay41lAkyACTABJsAEmAATYAJMQCLAggAPBCbABJgAE2ACTIAJMAEmMAgJsCAwCDudm8wEmAATYAJMgAkwASbABFgQ4DHABJgAE2ACTIAJMAEmwAQGIQEWBAZhp3OTmQATYAJMgAkwASbABJgACwI8BpgAE2ACTIAJMAEmwASYwCAkwILAIOx0bjITYAJMgAkwASbABJgAE2BBgMcAE2ACTIAJMAEmwASYABMYhARYEBiEnc5NZgJMgAkwASbABJgAE2ACLAjwGGACTIAJMAEmwASYABNgAoOQAAsCg7DTuclMgAkwASbABJgAE2ACTIAFAR4DTIAJMAEmwASYABNgAkxgEBJgQWAQdjo3mQkwASbABJgAE2ACTIAJOA1IBC4xePbvL2COdzX2/1ciXstuNltNn4kP4mdL78WUscPh4+aizVt3BL9Z/GtkmL/UbLkD96QnfvzbD/D4XUDJP9bgp38tMl9VpRpLH30E8RHBGO6j44NyfPirVfjDSbsEZJqH9yqse2Q5VEYicMWXa/DqibOmr7OXM0MXY+qGjVDW70TW5k2obrGXhvW2HQqEPpGFhEkKVP1rNba/m93bAvl6JjBwCTjGYt7WZET71CJv6xzsP9U0cOvKNRtYBO5Yh9lPJcLjYjIy/nc7rg+s2nFtboLAwBQEetKQgAfx0q8fRbgbXdTWjLrqakhT2/o67f97UpY95nUJx2OvvICHAoQA0IzmmmrUtQlW9P/B+O5vu4LSigto0QkCQ4aGwEdhjx0v1yYvKOevhtKtCRW7Uy0UAhTw/9k+LJnlh6o9idi+K1euYDpGE+lf0ERarYVZf2gt3vxrFlo75fZD9MYMzAunxzNzHZJTMkyUNQgOO45D6P0LMNz5GsoOpuBi5SBoc4+aqIBy1lqMVQJ1eW8hJ58B9QifXWW29B00MBrtNC0ZT6yJhVPhFiS/nIp6E9VSzEnBkyvV2rOlqdjx3BZUiG+zQfJdlI5V9wcC39D5Z7ueN1G05YfpPRT3yk5MG1WJnM3xOHDGgknB16koPJOAuyasQNjE3Th5mp9Ny4EPzJy3vCAQfu+9khDQfPF9PLvhzzhVMzBB26pWLpPvwxwhBDTk46/PPId3C+tsVZWBcd+6vdj1wV5dXVwQveAAlgYMjKr1eS38FiM02g+oTkdRTlmf3s5jSgIC07JQeAstFzXVlKGmUoG6axZ8DHtLzyEQY+9ORLh7GbJzUkkQ6Id79rbO/Xo9Ca3qREyLACoa97IgYHX2TairpPHeUot6HnpWp9vjAkfFY0JYsmUT8R4Xbu0LKlF6eB/CIhZj1LwlKDydjFpr34LL61cCt7gg4AL/O4ZLwMpPHmEhQGbo+IwmdSlx/OIRZAx2IUCGz+A5pIDPrCXwcQZqc9JR2dcqQe4xmDBNhcKMvhU4rNd/TdDsSMCb1iuQS2ICA5dAWzaOvRyPYwO3hoOsZn4YHzcHh87sM9pFHaAYitOhubIYYar7ERT2Fk4XsCgwQHvKomrd4sbCHnBx0eq8NzcPMl13i7oX8NTxQSupBVl4DWezQwKK2RgzkXYD2i+h9GRe3zawppK2wxUI+mE8vPv2Tlw6E2ACTODWJtBI70vaOVVEJSD8lnlhnkPpqXPE3Q8jp80FrS9xuoUJ2HZHwDscP15GRqwzwjGajFibq0twNvMj/PUfptVXXNTr8O5/36td5TYAH7xsGzKWGRywB2Nhx2GIWvRTLL1XjfFKWtdvLkdJzqd4Z8eHpoec22wk7fwVYoXNhGGauBbvHVhrcKQPjIUdF2DVo+sRBg0OvpeI/XXRmDltFdQBIVC6upAsQvr5pcdx+Ojr+MpoAcHt9gTMjZqHsJH+8HX1BFqqUVGeg5zcVBz+WtO1vf7P45UfzYUbqfq8kZaOIXetwsyQaCjd6dJ6DYoK07H/i71ddC67FtSTIy7wUs7DlNCpCBlOtgWevhhC7RJ1rao+g6/OpuHw+bNoMFekgw8CxiViRmg0QnxHwIsENcFFauvZdBy5fEF+Rch9KmbclYBo/wiM8vSEU3sdqr87g4KCnbSdnNPt1qxD2FwoPahiFVmoqDBXQSucu7wPeb6k1jEmAZFjUpF5yVLdAwU8whdjevwCBAWOgQf1Ja5XoqIoC3kfpSCvyMq6qM4JeDAlCUGOndvcrbFweBIe25gA79p9eP+J36Au5mnE3h0L/xEkaDVVoip/H7LeTe6i7tOh79vpdiqon8+GTlNYe6btHA49sxjZcs11DkTQgtWImqTGKKUfFI5NqK++hLIv03D0o3RUmFLF0rcVxTj2UgIyq9WIfngtoiPHwddbgdbrZajIz0J22iYU6sZHR31zN2FL8mkE3r8W06epoRT564qhOZGKQ/TsVZncXfKC74xHMT0uBv4BKniQ+UhTXRnK8zOQs/stFH5j9BLQczUagspFO7FhUeeDF1Ni8H6mNVch/aCcsxrTY2KhGumnq2st2ZwVo+xMBvI/pRVQU+pbN9snoL5/cR9mBQNl78bjnQMkPC9ci2kxxNjPC06ktlNVko2zH23BsVzaWRvzNFa9mAjf9lwceCYROdVyz6oXgtbsx4PTvNB0bCOStxmsMEduwtpn4iFeAzdSz4yFnUbGkzolTVjHhmGojxeJ+zT+Ks5Bk7sPOZ+ko6xa7lnv4TiQa5Y9H2vJRd6pSEyLi8SEmEDk7S22uLVOyjmITliC8LAweo69pPdPTWkuCj/9M45+fk7+W2Jx6eYzXj97BDXx4+A9dg7ZnaWj1OyHz3xZfNa2BGwnCPio8fjmF/BjyYiVkljR9wnGlEXrMD7oCEqMPs56TM215bhQUARf3XnPkeQJh+aNzVdLUPKdwZr39RLIvidty9vyuzsOx5wNr+LZWVrVJ2EI3ewyHMFxjyBp7GhkmbKFaKtD+fkiFIlJFCWXYaMx+jZiXFeOom8MBKy2clyp7cM9Ao8FWBq/HtH0btInJ9cRCAiehwnnt5EgoL+3JwKiXsbKqdHw0u1PtTbROWcfqPzn0m8qwo4+j5RTOfIvNYcRmDL/dUSraBC0N6P13y5w8wrBnXetR/DIEXjjw+0oMzLAsrwTjHI6zsOihPW4Uz826X4NLc1wproqR8RJv2j/V/HGJ3vlx57rVMz/0fOYq6S66lIrXQ+XEVAFLIBqNDH4ZyL2fNu5X9zueBKr7klAgM6oWVzT6uAJn9tJOKDfhDtexxsf0ySw3VTLFLhtvFpatWm6nIsak/lMXd/D4+1lOPtZLiYvpQ/bLDWOXjI2GpYrTwHfe5Pxk6XqjolKa2MTnLxUUEUtgWrCXAS9tRrphyz/SMrdpfOxSnx78RxcdePOVUmTYoPx2u31jl5QLdqOyQvGoeNF6k4TykmJePAOF6Q9twmaxhultFafQ1mRrm/pWr/RKu1EvvQSvjfIh/YCfC83ufaLx/xfJmHCSN1AaGlCUxsJT1Tv0AVJCCThYM9vNqKwuxff0AQsfDwJ4SS36JOTO3GetABjP99KgoDRZM5ZhclPrUVc+A04Tt4kkNydhOFeTUihyWaX6Z/zOExYsxXzJ6m0t2ijulKbFHSd/zT6RcUiO/nnOJRrIO3UkzBSdA76t5TnSJpk0HuslSbjFdWGz0QTqmqs+e5SIfSxFCTM0NVVcK2j8qkvfb3pN0YN32tZ0PxLRs3NWn3iGIgJTyVhfqRBp9AY8Q2dg8gJaVpBoOQg9Q0J2MQllLjmfCJTH2c1wiNEP9XiYrbRc0d8y4mvq+gRRxcMHR0IDxPf2RsjQ/8vej5nbcJDy+fAW7/8S5xaSRTwGBWJcOkHbHktrfN7+mbGQdeb2/mRJpQd2oeqGYlQxSTA919bUGXBN8sp/GkseYKu0X3rxfsSChqvNGamhcYglATrf6TsM2ms3GuoFadR/T3g7RMJ5VgvlJ62pmDe69pxAT0gYCNBwBOxq9dphYC6Inz4+9/ir5klqHMbjikPr8Mzy2JAjkXkU8Hf8ezjf9edG4Yf/24nHp9IbjQ//i3+461u3GjKl2j2qMLJuWOCajaj/mR7Cyo7u0qx6DLjTMPvWYvHJSGgGqfe2YrXdmWjvMETo2etxH89fh9iyZuGbGrOxpu/zO44FbxiG/60jJacit7Hxl9+JD9BlS2oNwe9EKZeA5WrBjnHd+LEpTOooO/qEO8ITIhYAMPNCq+QDVg5nSbA5M2n4Pg27MnLRIWYBDn7IzhiDRZPnYrgqetxX3kiPrgi8/F3j0a0azW+ynoK/xQr4+2eUAavwdLZNLEesRxLJ+fg1eM5vWmMwbVNuP5dDj4vPIi8y8dw+btq7UePVvlVQYl44Ic0WQ9Zgwe+zsH2gitG9wzBzHtfJiGAhLImDU4c3YaDF45rPfc4CqHnAcycPLVrPb0XY6UkBDSj4vx2fHBiL4pqxVSJ2hlA95y1GMGB1N6oM9h68kLX68URh7HwGa2dxNWWmPL6I3+pONp4lSZiGlrprrL0Rd+Ems9pBTUhEkGTLDQaHrMWCUu0QkBN9hbsSd2JshoSBHxiEb0yCbOi/BC6fBPUF2ilvNR0XXt0piULmS9n6S654T7U4jIUaky+uxLFaWvxySdZqG8nIWDms0gQkyVlAibPSIEm48ZEt+bQRrxzSFe6czwWJm8iY+FKnP1bIg4VdplKd64GTfDintQKAU2X0vHpOynILyyTJmKKMfGI++lGRNP/41cXoGyzaU8lcByCwEVPQ+lZjHzyHJX3ZS4qqVtdR0YidFYCjSqZFEK7NNfP4dj/JOHol8VodR+H8CWbMH8WTSTVKxC9ex+OfWN4nRf8l+uEgJpcHHt3C05k55LQAupPNSYsof6cNg7q1c+ibOM6FOqHlSYF6S+l6Aryw4QNGZgfAVQJbruFGkIfpeBEzBZCQFsZ8t9OwieHs6W6Ck9YCv8YjKXJmVJup8VafUJ3cp2yFvNGK1CRmYyjn9GunegU73Hwn56AUL1Q2JaL86eKSRAIhOquOfD4pGs/O0XOhb8kB2Qj/4zR81qUjPdfStZC7HAfahlTRdRGPLSCxjUJDvVnUvFJGu3o0DtBJCdlLMLvpt2U24zLuslxYFwM/d3zd5BMIf10qLWWBFpNMZzKKuUXr2Tq0apJR96lxbQ7RCv8Y8loOL+b94HrHMxbrRUCWktp9/vNZOSL/nAlAf2+JCxcGAnfuGcxvygX7x+SERj1daAFxu+/OUc759dQY7gYIVPHLodoZ6r6ShPG0M6QT2AYcPrGvKNLXj4woAnYRhBQzsaPZwgT1maceuvX+ENmuRZSQzlOvLUJb45+A8/GSSauNk7OeGTS/Vjf5QVnplrlJzDxi5KuK2RmLulyyjEY8feppY9ydeafkfRWtm6VrA4lh5Lxovdo/O3nE6HbS+lyuc0PiImxrwaH09dgT8WNXYjaOg3KyvQee6iWDlMxb1ocvGgcFB3dgO15BipALaTec+p5vOuRil9EjkD0xHnYf2WvrNpNdf5mvJOn3zGoo1XFV7HDIxQbYkglaXwC7jyZg6/0H9PewGk7iF07D3Ytob0aZRdex64hEVg/NQQhQVPhVpDeqa5uNNmYq6Iea7+CEx+vwa6vDXdn6Pri7XhX8wHcHAyFHU/cOSURwbQAXFtEq/4H9xqoAFE7L2/Djs9GYMP8OKgiEhB86lUUya32K8Jo1UZUuxK131o6mdc3k1yN7lmNHXu6NtvskdqDOHXqaQTNsMRomNQZ5tNKmFidJDd66W+maoVB+rO1mtRV/pgE703k85xWvtWkgpNNbkkHRHJUoOZAEvbszdZ98EmNKeNFZEaosXCSF0aFq+GUYR3jP49ZqzHZnwZCZTrSf5sETcfElFavSTA48LoC3ps3kuEeufXzJ3UsGW06LTMSVkYWI/s1Ej7yb4yFelp1P3YmnVaKZcg61yJ/x8+R+aUuPwkF+W9vhSpS+KGnyWqYHwkCBiv7o1ZgVhxNrFuozNdXI7PoxqSmtTobOX9aB8XwVMSNiUE0TcAL5VbaZarRV4c8gun5EIWXpCMzg4SAjhsRW00G8ugnl6zXJ6BdhzEo25WItD0G6hzVZTQ5pPsb9EnFiSOoujcQviGxCPImQa7TzjC52aRdIaH603TmYKfdKLn6W3yMXExGLyJVOKpHU/4WvP1aKmoMVqxbSd0w7+0snKfdk05rYFYbBzf5DrK4gVbOeGYT3nmup2UWIzczF7HBaoydSUbDpF5obj1RMYPUgcTmEakVHXo9Cfl6dc/GYlzctQ77/HYjgdTDgu5eAt9MczsMxcj742LcnNVYM2qviudeBfcR40hsNnx2etp+zm9LAjYxFvacSDrvYlm44TQyDumEgA4K3yHrQHY/rVzbEr2Ze/tNRFSAOE+7AZ8e6dgq119RfuhTnBrg+ngNRanYbyAEyLZWFYcJYvWq8TiOnJWbuTTj8sUcaSy43T6+SxAwqUyaWOcVdFUbqr5wAJfFx8o1AmG394/IVFGpkSb/TkNGwKfTk+WJsBASDuhcaxmt3hgKAVIjdIliOzQYCizOP8RdASQOijaePiBrB9Cg+QyXxczFPQIhQw0LM/i3D72oxWSivZJ2NLpZaTJRRM8Pk2pC5kHU0OfBP6Ybo2HHiQikrWWRyo6SipOx0EYr9znZWpUgj/AYKOUmqz2vYO+vaCvG2SN6IUBfXC00Rdq6Koh7Z33sm72lCmOnkFBBl1d8lmYgBBiUV01qI+K2pGIyMowm4WZS/ZcpyDIQAjpllVNJIGEs/5SRANlyGmUa7VjyHN75fsrppDNMfdR6nnYDDYSAjvuQDUSh0HmnsaEaq22Xmer23ylSBXK1eGxZt09QkY5D+0zodBv2SYlQDyIkzrSDM8lAjUhQciZ1kAhxTEYtqDcURy3AeFL7oacTZz/c2UkIMCy2iZwEGKZbdhz0hlUvrm06kS7tjnlExSPUrIoi7bRERErvg1YSGM52sfmqRCG9e6X4BSPUCBrWi0qZvbQJjd/r+nyYqkPF0uwlfHJAErDJjsBwcmkpTc0qSnDBYGFUT6i5sAgaevn5WPxS7iu2Lfjb8ffwt74q3kS5Lv6jMVy0nfT4L+h1ig3zkjpVEW3FTwkyUYDND9MKv+a42RUNUUWf20NpN4CSYwTmJWzHTLl6O5JBrjjuRv//gUyGNtplqJJRGWq8IBlOBnv5wHcYTabLulOclilb7hDZJASMW4yZZOwbIIx9hbGwcXLy7KT+BIdQ2iHR5qso696wt6M4nxCoxDhw8EVY3Db84t/GNxJ/u8BXPMWUx8uL7tFJl1qX390LjkIwaW9CS38KkOfTkV+aQEbD8WQ0nEJGw3L1p2OeY0gXW5wj9aMS+W3smsuXaKU2EGJy7Us6ysaBd0yU3LeHyRaiip5D49R0XSdsuSrgJD3Hxjl6+DdN+lTSRAwYGvMSlkXKX++qUxf09BWTQXmOtKaLslxLbDYM7lFZjMoubWhG03Xx3Cng6iw9obpEOw5jdILBHYvx0IsJBudu/NNpqDaP01AyzKXDpkyeZC+28sH6glzSySZVClLnemg9rWtmZuBiQTY5ADAjNFu1T0jd5vwRy2yZhHrQSa16kH/UXCgy0jp2MJzCyY5GPEdyakG9YKYIJFsNMY5pJ6j4ghkmne5x642DXiCyzqXXaffny0qEk11VdFwg8k0ZDTvSO/A2rZ1QTUmBvPaB5pz0zHqIvHeInURL+61nTWlp0JXrNoQ9B/UM3YDKbQNBgCYu5PVESg26KLfGSBrqIGy1Os+mjDPZ8d9DPLW6umT4W3dNpp1tVbBYXVvm8j4/1E71uyYzOe90YxcMcdeNA2EYLLwimUs/cIGzGK3GE5KWOlyTmyC310KKC0WShpurL/3DCoKAczTmLnwZ80do693aSN5+vq1Dg/7+ZPQbIISOLgKsD3kXEo1rxrU6Y9sB04128iDhR9pZcCGhibwUmc4qnXGWE5TECSpDWyUCIqc61E25N32aJi25R8hoeAkZEs6KJaPhAvmivIZoDRhJT7XeRDCvVnoQhAqrwoHyCuO4nuqzyt+5d0fJq4vxcJQKJMNYbdIZ9fbuLrSrNUTyYiOSgtSjVKbsg3T3cXIwd99KfH+1u2fTqMINNOk31wbD3S9Hmth7ae8vDIpV3blDJPUqmyfNn7HnvXF4aBGp1YQnYJb4UaVaa8g25nw28j4mj1WFnVe7rdsn5MvhqinBrSudii9IPSie1IPIW0uQVxq0mzu0u3JXH6gF0e1dvYdojeG/v4o6S98ft+I46Iq6n49QLBNhNBx3w2hYvgJD4Knbamy8ZjQu9Rc00rtU7KySUbj0vuyrRA4z9KnLZ6+v7snlWp2ADQQBq7ehTwtUOLvitp4oUJGxcGmL7PTAqvWUWYe2avm9K4y82pARUvdJNwn4ehue+2inrP5/92X0Vw4XqKKf1AoBjWdx8OBmHNBoOu966F2aWrtKLZnY8Zfn8dXNDivywtQmfcAVkOaI/bgrUJO5D5r79UbDJgQBa/Pqr/Jutj96XD/9016JnE3x3RsSmiufhJQ28vbSH6li92Ls+GcfGvlarRG1qNi7Gm+eiEVoTAyCgidCSe5rfYUgoxaGuWSA+yfy5nXMcLJuxT6hdkgeXyxNknqQ8B5EAjYZ0edn0mSQDJdDJY9DVlYLsrROZvLdOuPATCP66xTZ+xgaDVvLzUVfVd/RSfcctDTCWKOzr+7J5VqfgA0EgWZy/Sb0gWh9081HUv8pN/6gutGK+ICY6ZKx8F0L+99Y+BrtBAhCjsRB7LobT9xIXcbLrA6h9QeK9Uuk1fHrVdpxQCvfYrXb8jUxg9o4e8qrDDl4YYhOzmholNE/63GDQjAh0J+uIruFLzZjPwkBxsnN3cfE9mg1rknL2bQL4jmC/nHB+FLZv1vrq3CNJvA+Qj1KtEXOc4nslUYHr12VFtDdScnKVawkkcu3fku1e8loeC2CpgmjYT/yYi+TarWr/cKjjYfU0K6TIid6EKRNlXbKe7McZG59SxwSAYcEElLx8hwmXoxd+QyYdrRRXWtF/RTw9BFeFm4FQUBLr7WSbCF200/6k4yvIxIRt3w1wimuQPiiRGRnb7qhkmbLPjFUD5oUC0VmOprE7oB4iVpZLUiQaKy5Ji14OA29DZ60KGaRWt4tPA60o8FW/xV2RzqjYYo0nHdVrh7XUKfbEXUdYkINUOwikgql+F715fvSdYjOkwp9qxot3S2SaxIfsymBnqx1W62i5SUl2ii3ytHw12mHGBbuEhoM/0G8z9SsKdEKRxRLICRYRiLyDCYf+VbrDpsVVP2tRmsAO5SCa92sYOPo36F/36khruQxSNoSpWBfNULgkE8tFHFZSqbUavSXCR18aSZK3nq+uyJTGMVDUIXe8CdvmKO9sMOOQakiV6kyV8seqr6g1Rt2CEHYHd0pBsmWoD1Yewm1Qph0GAl3nW6pmdxWPkUrlIf1RsML5CMN112iPhK3Jb1i8q0vl7wDxtDUjBJ5UjEdwEruyoF6TD+ZJzuC7pZjyDNIWaloB6l/3DmAjGtl0ZLnJI1WpPcY2xvDbgNhxybfAnKBeyYFe/6SrrVf8AvTvU90jbZxn0jqQbSA5iQEAHcaFyQQCC0sq3oL0jW16fI5rYGweyQZ9VuqymWtcSA7yCw/SLGJoiaS8w36hd8hM9mwvKR+y1l/TG80nACdD4XO9yY3t1Xl2ufDe3SY9r1oXDv/cfCT7JOEHVNfLRwoKNSGEETIedHViwNCW9MYA/9tGQGbCAJ1uadxVkxM3CZijj5gVkd9hyF2nrpbfWjLmtfbXFpj4bA978HiX29dh4oqV2bj1EXxDx9EzY7p4tt7+KzZiDJ0xt/bZspd76bGY797HX/8Pf1efgRRMvKI3GU9OvbNAeQJZyQ00Z1JYcpNT5Bp54iMfmUTGe9OCIvuMgH3CZmHAPEibKTou+Wm1ZRqaSVDJN9hAd2YpJAtgLT36UkqA8LmwCgNo8jIgaY+NHUooJgBYsg7qRIw39QHiYKEuUmrOLrUcgwnNWI3wwVhFDk52PBcp9tTxGNv/y4MbpRDH3LpY6CA14gxna7slz8ko2Fqe3A8xsvN89tOo/i81iuNkvymK43b6UyxBEhFQ6T6/COWrUj2S8N6cRPSrdWu1NEqv3d3D1cZzp/IlVZlPdSPYvIY05MxJ7IhsDxIVC/qb+bSimO6PlIuQOwcbb/JZncPhLdJGwLBRzuB8fTqif9m2TuZP2jOTsFJx5oM7Vs77VzbuE+EepBYj3CfiLFRFHenL9WCSvbirCSI+mH8wkSt4bAMUSejbWrrjAOZG/XgkCdFtn7td69Kv03LB7DLbcM26YyG4U4xN6Lkxj55JjujfR84hdM7tYvNEMVciZur9Vh2JZsinPcAWI+yjoTXcO1Xu7bkXL+an/Wompy5WwI2EQRw9VN8+Lkw3nRB1Ipf4bG40VovQiKg2IqN9LeJSV+3zbGTDG0l2E2+ySX1oLhHkbRCjeHSXEEEFFuLl1b0wwuNdiOC7wynKJX0CxvdRRixCum24zhwQjtBFoHF/vOe5QjzvjGZdvKMxp2R67Fq2dv4z8gAk7f0Cd+AZROiyQe/lpFP8HqsnBKidbdI/vwLTCovNqO09Ky0K+Hkvxjz/UeYvAfaz6BI8jzkguC7nsTMDuNmivB7x3KspA9kQKcYAJ2LEu5UD5aRQCIiId+zDQ+HT4WPfsJLcReU/svx8AOvY66k+qFPFCgtOw2XRf2HLcDKB57HDJXBhF/hTwHMVuHh+3fiubvnab0rybbMcAnIAAAKtElEQVRARGzVuuzxCtBGGJbN1lcHdUbDrTSR8JCd+NGuwSfp2miaoxYj4bFEKL21EzARUEz9iySKIUCVazmHkxS4yy5SWwEqyrTCmf9M8vUt7TaZTvUUP+SLUspPkVrjfplCfvrJMFQ/fpwpmmjEEsSt2YnHXqHYDablBNM3sOYZzVvI+lzsCpAf80dS8ODD8RSxWV8pikQ7hoImLU3GKvJHHxdiqrLkO548RYnkQUHpwpWm8vW24gooF6Vg1TNJUE9TUyTjG/VU+Cdg3iNa17etl7JRZqSSZtM+0QUXE4wDE57GWMk8QCaIWG/xiOvJ3WvOP/dJuwKK8LVY/szTCPXXrgSL005+FM14SQpW/mxB58UIq4wDazTgVitDZzRM1fagYF1yqelzMhIXnyPyXjXrSYoSLkWRoyQCij28FXdTDAHJXuRgmkVRiuXu0e0xWiz0u51ytV9C5XlTLuG6LYUzDAAC3W1K91EV65D15lZ8GPwCRRcOx0PPb8dDzc1oJgt3F1rFrT55BPm0rRxuaoG1j2o1kIqt/jgZf5j4Kp6lHZOoZa/g3Z8QnzbiI+aJFUeQ9U0MYkMHUo1vri6151/GdveXsXJqNEUEXoVV9ENLM62eu3RaHTfp8+c6BQurCcWdsb/HndPJSJmuk1w2Umqt2IldX3SNMWBY09bLaThcNhULaYI940dpmNJUhxbhBYjUeQ5+8BQOd/g1bEbBl6n4KuBJ3OlJ+R9Mx3yRV7+KTwbE+49VISZGBEiTSxdw+F/Pw+tHz5MQ4Y8pszZjyg+pvmKS70x1FkIMxQs4bHzpd29j+34vrLpnMQL85uKB++lHhtgNpI/pRtd1pG+NL+z89/W8I6i5h9wAkiCgdEtFqbHdifnLe3225ojOaNjUhJeinqanjcNPltJkTP00VtJPGFA6kQtOKZHOceG7L+KYtDJpheQYCfUTNKHpmKDSN1Q32fSethHLgg12kcjHe/qbaVq/3Fa4tbaISpw/nIG4yHjyVLMWq/64BDXVpIst9Gxp4nV060bth15/v5ZsZG5JgsfTFF14FNV9dQrUP6NVaiFL0OS140XeNhCie1bi4o512O++FfMmqRC0cBP9dAaxzjqXqlK7yEjXDE8RnfrifAqS5j0HCzdnYXZlGRolob4ZGgq+deCUlVQeyJ7IN5I8BYkfld56nbxBObhAoR97tbnISqUgWsZ1tXGfdHgPUqqk/m86s9d0EDHlEix8lIKC6Zf+6Fs7VBLKvTB2SSp879M3rgn1X25B+t7OEcibTiXhvbcVeGgpRRcm24mEVxLpPU0B19oo+rL+mc7NMCJknXFgjL0nf3saGBtWX63WqiT3pABb5ZWMhhMxy9QGbmMGDvyJ+u0J8jA0KgELX6GdZmFw3vF8NaHq899gf4ZWTa8vmuEQQpob4vVckY1vrvTFHbjM/iJgI0GAmleTjT88sx6aFY/g/qnhGO7jgubqIpzKfB9v/qMZy/5CgkB/URiI96EYAhmbn0B10U+x9F4KwCZWoJvLUXT8U7zzlw/h8zgJAgOx3j2uUx0un3oKm79egJkT5yJsZCjp4pKKTHsdar+rQkXVGVy4fJACE5nwn0CT5yP7tqNg0ir8MCSCVlZpklxLUYkLKXDXF3stUCOhCfre9WiYTtcHRkj3lh6Kdq+uqja16djxfhXmTlmCKf7kztOVJFVyIXr5ciYOn9iOr4ZsQIy59lPgtD0frMJX+jgEfhSHgFZ1G66TG9Kqs8g7l4bPv+2qxtRAXpX++PfjmDIxAdH+EVCRmpSIQFxL7bz2vQaXKWbDCQqgZlJYEnWiqMylJctJEIikgFNeKM0xChBlrt7WOFezF3mS0bC8mCQMYKv+tRZ/K03E9HvjERSigrdCgdZa0nEtooBi/yfjwrFX9RoC30Dyzy+zQ9HF7SWtuItAU/XGTg16dX9q8ZdJeHtbJWbPnwP/EdReMkqVEgl6wiizS6rch/0vUFTfOYmIpgBjKsov3Io21ZSREEG7PufJ0JUErosDwZiadm/y/mcxNOoVmB4XC3/ywuMhVtubKqW6VhbnojCbVMZyzUzmq9Ow+3dALEW1HRsyBt7KwI4Abd+LmBlWMZqmcXdwK/Y0kq59WBhUKqqnpxcUpApUX3EOZTS5ziaPZmWmYgrYsk8k9SDyHiTFmBDegoyD2xmMIHcVlEHjtNG7jQaWYiS5pDU4VqMZ0mXoSc9nxjpsL4jH5AXUH+FhpCJJnOi+NaXkZpUiGWfvT+/sRU2UYo1xIFMbyw55Iio8WJu1Lhu7P9KagVt2ra1zkdHwZ9mIHWPaJqiVojynvXAakxOWYHwERcemcQtyaVxFu1eFh97CUYpUbC46ce9a6IXbKDCs2JSsySE7GjYU7h1OG1/9g+CwCXJe2G1cLb49E+iGgN5VZ91evPH2qyjiF1E3wGixaHIy5i2NgWPBJnzyp51WmUZ1e1POwASYABOwBQEXNZ55+xXMpzW08t3r8dP/PX3r7AjYgldP7umRAPVzL2KEQzZO//ej0FzrycWcd6ARkFt3Gmh15PowASZgBQItJ1NxiXQxHMYuoRVoKxTIRTABJsAEBiqBoIkYL3b8Gk5j1/ssBFizm9ynLCYVU/JoTeqyX7MQYE20NimLBQGbYOebMgEbEGjPRtHHR8iuYQwCZ88XAYc5MQEmwATsksBwcnYxmlT6yg/+HfvNGaPYZev7sFGKOQiOGQeHBlJBOnCEvQX1Ier+Ktp2NgL91UK+DxNgAh0EWnK24OTQYjLycoUHSQK1rFLFo4MJMAE7JFC+60nM2WWHDbN1k4a6oDEnFWdL0qHpz+CUtm63Hd+fBQE77lxuGhPoSuASKj7datZbS9dr+AgTYAJMgAkwASJQsR+F/7efUdgRATYWtqPO5KYwASbABJgAE2ACTIAJMAFLCbCasKWkOB8TYAJMgAkwASbABJgAE7AjAiwI2FFnclOYABNgAkyACTABJsAEmIClBFgQsJQU52MCTIAJMAEmwASYABNgAnZEgAUBO+pMbgoTYAJMgAkwASbABJgAE7CUAAsClpLifEyACTABJsAEmAATYAJMwI4IsCBgR53JTWECTIAJMAEmwASYABNgApYSYEHAUlKcjwkwASbABJgAE2ACTIAJ2BEBFgTsqDO5KUyACTABJsAEmAATYAJMwFICLAhYSorzMQEmwASYABNgAkyACTABOyLAgoAddSY3hQkwASbABJgAE2ACTIAJWEqABQFLSXE+JsAEmAATYAJMgAkwASZgRwRYELCjzuSmMAEmwASYABNgAkyACTABSwmwIGApKc7HBJgAE2ACTIAJMAEmwATsiAALAnbUmdwUJsAEmAATYAJMgAkwASZgKQEWBCwlxfmYABNgAkyACTABJsAEmIAdEWBBwI46k5vCBJgAE2ACTIAJMAEmwAQsJcCCgKWkOB8TYAJMgAkwASbABJgAE7AjAiwI2FFnclOYABNgAkyACTABJsAEmIClBFgQsJQU52MCTIAJMAEmwASYABNgAnZEgAUBO+pMbgoTYAJMgAkwASbABJgAE7CUAAsClpLifEyACTABJsAEmAATYAJMwI4IsCBgR53JTWECTIAJMAEmwASYABNgApYSYEHAUlKcjwkwASbABJgAE2ACTIAJ2BGB/wcgg8GqnTZCEAAAAABJRU5ErkJggg==;" parent="1" vertex="1">
          <mxGeometry x="220" y="250" width="770" height="62" as="geometry" />
        </mxCell>
        <mxCell id="Y4W8C6CxUiJVroTrxwmG-2" value="" style="endArrow=classic;html=1;rounded=0;" parent="1" edge="1">
          <mxGeometry width="50" height="50" relative="1" as="geometry">
            <mxPoint x="690" y="320" as="sourcePoint" />
            <mxPoint x="260" y="320" as="targetPoint" />
            <Array as="points">
              <mxPoint x="630" y="510" />
              <mxPoint x="320" y="520" />
            </Array>
          </mxGeometry>
        </mxCell>
        <mxCell id="Y4W8C6CxUiJVroTrxwmG-3" value="OVERWRITE" style="text;html=1;strokeColor=none;fillColor=none;align=center;verticalAlign=middle;whiteSpace=wrap;rounded=0;" parent="1" vertex="1">
          <mxGeometry x="410" y="360" width="60" height="30" as="geometry" />
        </mxCell>
        <mxCell id="Y4W8C6CxUiJVroTrxwmG-4" value="" style="shape=image;verticalLabelPosition=bottom;labelBackgroundColor=default;verticalAlign=top;aspect=fixed;imageAspect=0;image=data:image/png,iVBORw0KGgoAAAANSUhEUgAAA7UAAABGCAYAAAATt7MfAAAABHNCSVQICAgIfAhkiAAAIABJREFUeF7tnQtcVNe1/38MA8NrGATk4aDISwSMCBpEo0Tjo4rRhOYhbdSkiebmYXob05vEtLbm2hub3mhzG2Pzr6ZNTdJqHiXVqIlKNGhEiUFFBUFAUUZBHnHkOTDgf50zAwwzZ2CQgYCu/fnMRzlnn73X/p59ztlrr7XXdgiPGnsDnJgAE2ACTIAJMAEmwASYABNgAkyACQxCAvLhYaPh6ECSt1xD+YUyNFhTcR0c4aRwg4urq/hTKFwgFy680YTrpcWo1g3C1rPITIAJMAEmwASYABNgAkyACTABJjCoCYh6qU1JroKv2g8KW/PbVChnYgJMgAkwASbABJgAE2ACTIAJMAEmcPMEZJXaRtuvvqFHc0MNaqqvoqLiOvTWrLq2l8g5mQATYAJMgAkwASbABJgAE2ACTIAJ3DQBeUNTq20XN1fjSnF1R15nH3jZdiXnYgJMgAkwASbABJgAE2ACTIAJMAEm0CcEZH1SKhfKBJgAE2ACTIAJMAEmwASYABNgAkygHwiwUtsPkLkKJsAEmAATYAJMgAkwASbABJgAE+gbAqzU9g1XLpUJMAEmwASYABNgAkyACTABJsAE+oEAK7X9AJmrYAJMgAkwASbABJgAE2ACTIAJMIG+IcBKbd9w5VKZABNgAkyACTABJsAEmAATYAJMoB8IsFLbD5C5CibABJgAE2ACTIAJMAEmwASYABPoGwKs1PYNVy6VCTABJsAEmAATYAJMgAkwASbABPqBACu1/QCZq2ACTIAJMAEmwASYABNgAkyACTCBviHASm3fcOVSmQATYAJMgAkwASbABJgAE2ACTKAfCLBS2w+QuQomwASYABNgAkyACTABJsAEmAAT6BsCrNT2DVculQkwASbABJgAE2ACTIAJMAEmwAT6gYBcJnMwViODg8wR7VrujRa0tnaWQDjvYMwu/N+QHODgKIfM8YbhzxutdJ3x//3QAK6CCTABJsAEmAATYAJMgAkwASbABG5fAnK1j6uh9Y6e8AvxbCfRor2ISxX1JmSc4RUUCpWzOSwnKIeFQ9l2uKkKmosVaDbPxn8zASbABJgAE2ACTIAJMAEmwASYABOwMwF2P7YzUC6OCTABJsAEmAATYAJMgAkwASbABPqPgEN41Fj2Fe4/3lwTE2ACTIAJMAEmwASYABNgAkyACdiRAFtq7QiTi2ICTIAJMAEmwASYABNgAkyACTCB/iXASm3/8ubamAATYAJMgAkwASbABJgAE2ACTMCOBFiptSNMLooJMAEmwASYABNgAkyACTABJsAE+pcAK7X9y5trYwJMgAkwASbABJgAE2ACTIAJMAE7EmCl1o4wuSgmwASYABNgAkyACTABJsAEmAAT6F8CrNT2L2+ujQkwASbABJgAE2ACTIAJMAEmwATsSICVWjvC5KKYABNgAkyACTABJsAEmAATYAJMoH8JsFLbv7y5NibABJgAE2ACTIAJMAEmwASYABOwIwFWau0Ik4tiAkyACTABJsAEmAATYAJMgAkwgf4lwEpt//Lm2pgAE2ACTIAJMAEmwASYABNgAkzAjgRYqbUjTC6KCTABJsAEmAATYAJMgAkwASbABPqXgLx/qxtAtTlPwSv/+A1mqKqx+1dL8EZWU5fCeY97EI8/MgcTIwPg7epsyFt7CK8t/G+kd31pl+UOxpOu0X/E76bHm4lejaOfLcRHmlsfhtPYdZjx+Azg25VI/3A3mgfjTewLmR2nYtb6DYj3rkHO+hnYfVzXF7VwmUxgYBAIWo7HfrcM/sjCjqeWIbdxYIjFUjAB6wRkmL/wbqyPkaH0UBbm7KnBgHlLy1R47RcT8JCXmfTn8zH9b6Uotd4oPnOrEhi+Avc8vwTuRRuQ/vZm1N+q7eR22Y3A7avU9gThyAfx6n8/iWhXuqilCbXV1RBVt7paw789KesWyNtcX4IL5UpjS5zhPzQYrreLzV+WgPB5M6BoPosz+2xUaB1HI+l32zApqBLZrydj72krwwjHBMx6YxPifQW0NSh4536kfVPZucc4JSNl41qMctHR+al03kpZt0A/67YJvjOQMHMcXJrzcOazXahq6faK2ysD9btR989DgNN1aPZtQpFZV7q9YNzmrbX1HTQgMCkQ/PgupE73RdWOJdj80UkrUikw6rmDSElQiOfr9i/HO389CH2n3L6IX5mOWdF0PmMFNmxKt1JWLw6rliD1/15AcOtBpP3HchTwLOfNwWzVo1SjRW6N8XKlEtFet8vAojtkvgh+eh/GRXaXr/P51pxXsfOvaWjt2WUDJ/elLSg4nYLxYx9F1LjP8N0J/ogNnJszMCVhpdaG+xI9Z46o0DYVfYJXXvoLjmttuOgWzqK/8CbeumBsoCwJDz+6BhPdbuEGmzRNcecShPgDzTnbUFLel21WIjQpGe7fbEFdX1Zj17J1qK3UQNtcg7r+0LW9ExA/LxWq+nRotrNSa3ErZaGInL0E0W4aZGVvIaW2P26KhRS37oHW62J/d2mphJ4nVH7w++w+MQWhWw+igM05XdyLVuhq6lB6TYZL9fT/LnL2/6k6bNx2DBuNFYdNnoAv5qj6XwyucQARqETpgV2IGrMQQbNSUXBiA033c2IC1gnIh4eNhqMDZWi5hvILZWi4YSWzowvcPD3h4eYGZ2cFHGV00Q099E0NaLheDW1NA1qsXWulyMFx2BnBwwNEUcu+O3TbK7SD4571lZSjEZw0BU6oREnmrj53O5ZHzsPYoC3IHCx+Vy1ZyFyTjMy+ws/lMoGBRODyFnzyyy0DSaLbWxa3KRg7SY2CdM3tzaGb1u/ZlYU9u7rJxKcHGIFKXPrrTFw2M0PJRj6LpGUpcGvVoPD/PYmCUrNpCn3N4LXStt2B4jSUXFmIKPX9CIv6O07ksVo7wDrngBJHJiq03SVHL/gHj4SfjzfcXF0gp4sc6DoHmRxOLkp4+gVDrR4Kl1vSU8SdlHjDGtqmplt/vWh3XeG2Ph+6EMGBRKD6IC7m9+0cd101udmQy2DM3Qm3NXJuPBNgAkygWwLaSvJoUSDs7mSwba9bWpxhEBJo1VWiua7zT9dAY1Kjb3FrveX5Zl3fjlP6B+NZlB4/S1X5YtikmWRU4MQErBOQV2ob4atysZ5DPGNQYlubalFXcx319Y1o1tOTJHeBq6cPhqhcIXPxwdChjdCUD7CZIVU07lv0UyTfFY0R3s5oqr6IMxnb8dd/1lpts3PCCnz4P3PgbZYjfNFGpC8yOWj3QFHOUCduxorxwdAX/wG/2v01fMKXYG5cEsJ9AuFKK3hrtKeRe+p97DidjYZO8nnAP2IJZkYlIsIvEEp68hsar0BzKQOHvt2KU1rz9jpj5OQteC4uEPrCNfjVYWDWpFTEjwiGt5zq+b4AOTmbsTvvjFk9VrHZdkLmDXXoPMSPjMfIoYHwcfcRZdU3VqG07Aiys7fhm/IrXZeliEH8uB9j4sgYqFU+cHWkttZRW0szcDTnX8iurJa83tUvBTPjZiFqWDB8XDzIh7ga5WXZyD65BQculUhe03FQAe/xU+FGEze6c4dwrY8XqVzL2oXKGUsQPCkFwR9locTWdVoutI5ywZOIHx+LgKG+NMwjV+DyPBQdTcPhnbvINbibZvb0dOxaLP8luUl3uq77QFE+D6Rh6f2hwMm1WLfhBELvX47JkxLgr1JAX1uMkqNbsH9rGqo6yduxPq5TdW4z8OBfzdbdlW/Fey+tRbmEW6giPBWT5yUjLCIUKg9aG06DhariLOR+sQlZJ4utE2hrqzYNW/9zNcpGUDkPLERMZCjcnXTQaTX08d2G/R9uNcrdIa/moxRszQzBnT95ErFjQkDNpGppXfaeddi/56TZOkATEZxCETZvGeImJCDIn+6now511eehObYVh7enodzM1bKda6dWqJGwKgudpkdazmL/Lxciy55LlNxiEX3voxjb3veISU0lrpWdRfHxnTh5IB30uZFO3lMRv2AhomPHUR9QQt5SA+2VEyg6tAUZ6VnQSdxHsSCnFDy4aTXCUIzMV1OQUU0u6Q8vR3zsaPgIfaleg/Lcg8jauhYFtFzAfd4WPJUaC3npFmz+9Trpddi0tn06rW1P8NWh6L1kfJLeBkkB/9SteGwe9VvTRB4KtgeKUsCdXOkmz56J4FBD/5M3U/8rNTyj2enESOoZ7WE/kIZ8Cx+9sAs5PkswKSQFsSHUZ87bOpin+xFN9yN5HsJCQ+AuLKMh5aC88CBytm9CTqE9H5AfiL88AJt+HYNpZkaH7gJFKUIisf9nQRhafxnPvpGPitgIPD/Jj2I+0CQ/TfAXnb+Mt3cXYc8183a54pllk/H8cOD45wexoiIAK+4Jwt2BrvQ9aqJ1s5XY/tU5bCzpvPrZvJSe/u3pPQQLxvnh7hAVwoe4YqiHHApap1tRXYMjp0ux+fBV5HZjl/D09sETU4djWogSQZ7O8KQ3s3D98YIyfHD4MjLNh1GikDJE3zECz04IQBy1cSjh0dU3ILeoDO9/fRE7Kvt4sNAjUGqE/HwnxtIrrPJf8/DNIYqJcs9yjEpMgJe3EjJaOlSjyULpl+tRkG/0eIj4LWY9S9bgut04smolys2aI7tzA+Y/MgW4sgVfvb5e0j3YaeRCjJqWDH9657kbv7k1F79F6Vd/QWH++W5bUH/mELTJo6GKnAF/1zSUdh78dns9Z7h9CMgbmmx44G404npZMRrrmjq7MrTUoqaijtwwQxGgcoKjxxC4V9FDYd931c3fDVpz9/PXf4P7RhqjFQuWVu9wTHxgBWLCDuEiKUNSqammDOfyCuFjPO8xLBwBpAM1VVzExe9N3or1FyGtPkmV2tNjzgga/wcsTYwhZbYtOUPpHY+JUWewz1SpdYzAxJlr8HC4YEak1NqEBhoEuroFIzxyMcJDE3Fg94vYccmKtO53Y9GPk3AHtRHNTdA7eEDpG4+77nmTlOlVeOvQEfsptoFLsexH89AWZkoIvNVAgzhXt0CMDE3ByJF3I+qbF/FezjnJgb7cbzENKpciqm0NL7VVWM/mqqS2RlFbQwLR8Lc1yOvUrT0wMm4NHkuMh9L4Ydfr6D46kYIdPJN+iYg6vAqbjmdL1ikylcUiMFKI4KRDdWFW37v0XNuHnJOk0E6gwX6CL0rMA0aJQpkl1QzMenkt4oMMgVPQrKP2KOEelEBuzAmIjo/CJ/+7DiX29N6p06Cs8CzEaTFHZ3iNoI+WlefKXFzxbyc17nx+OZKi23sE5CpS5GavRoBSh00bd5ms+9JBW3oSGlr+ICYXX/gH+YoKUNVFDRpNFZ8K+tuiQiX856/HQw8ntCvh+noa/LpROWPogztmKkI/XYFPPsuy3g/EMhVQjF2Jxc+lwqd92piOeZPc02ag4KM2pbZDALlPMuavWoZRwkyZICcxUvjHIn7x21C1LCHFSUKZ9k3G3P9ajbHDOu6nroUG4f40cTFvNUJJ0d3x2koUmDzW+uqz0BQa31GOSviOUBsU4dLzuGYKpDUP16SUJwtmNh5wm4rpq9Yhoa3vNRrWVStUavh70y8yBMhPJ2XDsjxF7Eo89Ewq1MZnWt9I/ZZkV4VQ36df5Ji1+OdblkwtSvJKwfyfr0a0GGjNkORuaqgnzEPkNzRIK6cJgaMHUf5ALNSBUzAqcJ20a3/IDIiPevNJFBwzVWp0aKygCYU2vm39z0IQKwccQzHq0XWYPz0UbV6EYludfGnycqr4U5OS/sEOs75wE/3AigS37mFyvzzz9Unc+Ugsxk5PwOHz5gGjpJqugM+cDfjJIybvA7ofciX1mTjqj2NnIuzvy5C2X+LZlCpuoB5rpcmZS1r4Gb99nj4qBPUoBoYc8fdMwKIpSnrzURK+rS7OiI4aibeHyrBs4zkcsDLmU4RE4P05AQiiDq+jsaaCvN7CQobh+Z8NQczHx/DsmW60TJuZOuOh++LxMr1mxNRK64Wb9NDJ5RjqNwTz7xmC2WNKseKv+dgjueaaFNPxUXh7nkFWsQwy3OhaDdfPpjJm+7di/PtluG6sQvxH7o5F9D75bYxxlCbUSywUHu6Iiw1DXBRNAvwzG68WWQFkWlZ//18WguBlqzEuyuSFqVBCGToDwVHbOpTaXslF7/F71mHSvQlQGPtfawN9cxW+pKDOpd8U+H/+AjL3dTOmKj+Bapo8UXnH0rdEidIT9hzE9KqBfPEAI2BboKjWBtRbjVZzA401NdCrvCF3oIEd6Y8DQ6n1wNRlKwwKbW0h/v3H3+OvGRdR6xqAiQ+vwC8XTQEFRJROef/AKz//h/HcENz3v9vw83HAxS9/j//4e6H0NXY+Kveahx8HR0CvScO/jmcgr+oKmh1J8SMlbIradBbaA1FTjApt/RkcOPg29hWTdZU+PHI3UoAnv4gFkRGYNvN5XPjHKpySmMCWB5JC20iK8vbXsZcslnrHYERNeAmPTIiBf+xLmH9pMT4qkZyivIlWN6FKsw+H8r9GXkk2NPXGchURiLrjGSy8Mx5Rk1/CtJKl2GcekMttHhYZFVr99xnYTUGUjpacMyjcwvWRqZg5xlIkZcRLeGwyKbQtV5B3ZCN25GSgXBjQO5EiPIbqTExEeCJxKluCf12x8pH1GgtvQSFpJeXgYg9fqKS4X7t8lqyG161bqizEpujHGQdRNyHZxoBRvoh+7FWDQlt/EpnvrsbhrGJRqfWZ9ALmP54C/5AlNKN6ApveSbdfgJDCDfjk1Q0G6du39LFojPUDEWQlqT+LzP8jeY+RvG6jEZ26FnNp4O+e8CjiKapx5uW2y2tQ9P4SFLX9OWolnlpFgaJ0Wdi/ZgWKulHS3O961aDQNmtQtH0d9u4hq5gwwHEJRfCsFZj7wFQE378a0wtSsDdX4kFpq5cCME1eQrPG2oPIJGtpfu5Z1LYo4RUxFWNnR0kqxD5JS+BVuhVp6zehoKQScv8ZmPzUq5gUrkTYvQuhPrAWGlOl3CkBSb8wKLS682n46oNNyC3QUNn0jg1JRtLPVpLCl4zkZXnQvN4RTEy7fyU+2G8UlCJlz9+wlgJFVeLM35Zgf0EXbbJ+h2w6o5qx3KDQaulebFyN7FxBVkqONHiJmonYpFjUSt2fYUuQIiq0OlRlbsDeT2n9FHn7gJRan7gnMetx8laIW4H5C07gvU8FFzQrydEToQ+8AH+PYuR+tgU5x06ikopxGRaLUdNTIMzXiakyHbnnl0E9ioJoTRxNSq15mWSNnThVdGHVkxKeb/YO0qavwAfpxrLat/RpK7yrf6ncB9oU2hpoyEK/lzwnyquFe0ITT+EzMf7+ZRhmXsRN9gPzYoTJw56/gyxK6bcDjRXFKKfnpIomyW1LNOH1DfWdlFiETbAxYFTIcqSkGhRabdY67NiyDRotKbWC18Bj9B6I88WoxWuRcI48GrqKa9BKcl4spoBhGlKCbJO2X3O1fo/fv3vMWGXHlj42y0CTN4sSdcj84hhezdKilBS9uAmRWJ9MCqBvEB6PPY8D30krbdExAdBpLmLFx0XYUU1KrYcKT9w3Fs9HumL2fZFYVHIKH9hraFFfgwNkTd2eV4UjlxpQId4LGYIoJsoKqmu+XxBWz63EkU+rOiumlMszIgJvz6f2kOJVca4Ia78sxZ6rpBQL57xUWDA5DE9Y+LXLMHuOUaGt/R7v7szHu3l1Yr1COxf9KArPxypJ6Y1E9p/OYIdxUlEhd2qfXLfpHrQ2o1Iar02XW8ukGL8cMWoFqo9uQOHRQ6gmi7SjcjSGxqUg0E79WBG/GpMWkEJL39wru9bj9DfpICM2AQqB710vIO7eKfBN/i2iin+MM8VdfJ9aT6L6ig4hZE32Do0CTmRZaxYfv80J2KbUdgeptQWtQpAohwEUKcr/Htx3l6CFNOH43/8bf8ooM7SioQxH/74W74z4M15JMncw7q6h/XjeOwLeFGV4/e400LfAmK7gVE42Tp02Wp6Fo0NSMTc6kKw/Jdi38xfYfbVDKdPXZ+ObfavgOmQj5volYlpkIF0v5dpbi1Nf/xq72yy5VFbe0TXY4bsZD4/0xvg7ZmF3SZqkW0mPiWgocrJUHA/dOeQd+wP2DtuCHw+PIPeYYOw7buoS7Izw8Ytxh+geloFtn61CtumMq3B9DlloC7zhavpCliWSW3USDRubUHj4JWzOMSmzuQSFx1fhQ3dyw44NJJdmaueVndJW6cAow4dIp0GNFYO3dRbFyHlrIXKsZ5A8o89Jw5nyZCQIAaOIS4dyJ5F9WCoS4gRrJynDW1Ygo92vlKyYmavxMVkfnlpMAzhSFGM+Skd2j9sgUac9DjnVIPe9Z5FxzDh4JQU39/31UMcK+91SYC6aRc68bAcXQKepmPzgDLLQ6lDy0XJ88kVxh/SN5O684wXs8ErDotlqxMxKxv7cNEnlVLyIPvz+ul34ZPVKFJkoPXXkTqyxEiVLTla/vW+SC6yRu76crJbvjcOoV5fAZ0gCRtAjrDEZOLtPX4Y7g8kuUpmGtN+vRkl7XyeXXlJy976pgOr1lRQ4g7Y7CCZ3y+685+1xr6yWoYA6wmAiqcokF25SaNsTRQbWnt6KDPpZJiVGPfAkgumZrjtG1tiNaR2RvgXr+7F1SJOpsew5cjlLSkXwduIgpRiLBZO1fVgxst4g5b19TxAqt5rckk+niZZxQypG/rdnMX0UzfjHzYTPZ2c7uyDTOvbosWrKSv3k2D77Tf74LsT0WYKFVofyHc9iK21T0zFOJat2YRoy3tgHharzpJr9+sHNvYMs71l/HBEYLcN7O3pYV80+HD/+AsLusiVgFE0mzU0xeGORK3raO1sME51UpZ5iJmS9tRqqtfQOIq+IhNlTkUVbBVlNNbuw9ze7rJ4e9CdkMlQcOYXlh9v2tNXjeFY+Nob54rUosuKGekPx3VXpZ6Xpe/xx2znsMLoo62q12PhxLsLJSjDf0w8Pxbvigwx7+JI24d1tWXjXAnYrSi9dxsodZDn92QgERQQgUV6FPZ2URHc8MStIVGh1tCfu0g9LkWsyhrh+TYsPdmXjSzd5Z2XYbwRWTCALLQVjevfDE/i9puMioZ3vfnoKnr4JeEbth8XjiMER4dl2wk8n3I8Xh1oIav1A2VGM+/aiNF/rV3V7Rjk8BJXbH0XmV2c7PM+uaVByKR0lZq7q3RYmlUE2BZH30vaHJHnljuXIMnXT0Z1H5Vcv4Duvf2FqkhrB5JqcRwGhrOvStCSuQhgHqOEWOJrKpCUpUnXysduegD26LmQKVzg5EEtyUybvnQGRPMYlQPQIaTiB9P1GhbZdsu9xcG9WH7oO2wFBK7n0HDJVaE3KJJfbtqQelQQ13UV9aRoOmCi0HbnP4dR5QZEld2Z1fLvbWycJ64/g6HlzLecKvss/LSp48mG0TrdfVudXQVNZJYrm6RXcSUTI4hFvdK/WnNrSWaE1zdlY3VkpVSdhrKDrNR7BoTNSI/8mXCjKFvuCqx+t0bXyRCh8fA0BCmiNYL2pRa2zlPb9i9bq5WSSJUkIGEUudV0l9zG0HlUYuNfQWjCJhZJ1h3ahWJgpdhqN0DEdrr5dldkv52gAmXvczBrTfAKaEsOLxCNAUDDskKKNLqU1h/DtAROFtr1oHTTfZUHQURUR5J7apQs1ufN9vqGTQtudhLrcXcg1f8RKqZ2ClcJxKLyGGl2MxYLUZEVMEJ/V8q+3mii0JrVU70OB0AxyaR0WZSdG3TXChvMutLekzTOlbjMRIz6c5Dq6e5fk1lW64/sM7VfFItjCjNlZoLpjm3DQRKHtdNbkma07Ri7IgnIcNBWjaHuuTmkEuZwK9Vi4Hpvl6+Gf7hNoDa3go0/97/Dn1tZQk9JAlsKONHj7QQ/x2Ck7eXJk7KNnmPa5ndJNwCjHcQglN0YhaQ7T2nTzyZLmg8gmTxchuUeTi2SX7wM7iT9Qi2mtwZfZbQptm5B6ZJYY3PcUXi4IsiK7jtbdbjdfc9tUhe1nDWOY6DAfq9daKfKmDuuu1OCScKWLK8LNXa8DAvAjP+FkA6317azQmlZWUd/ZXBo3NgBhoiJcindNFNqOa+rwZb7AiFybQ7xofe4AS5WfIe+AiUJrKp517dL2RkTMwDDBblR3CIWZEutOSC2tJourMF/rNII84ayMvQwV0tKPa8bJ7SHqWzQore1oOad1AjaPP6wW4UDrPL3cKZQUGQtpdqrfBvxWBTKcCBgRQGocpfKLOCfh3tJUUIgSGuh4D9SP1bVs5Jm731q02RtBFGxJTENTsPTBeRY5hANOLoY8cndv8cVqPraGtgClEoqavuocWYkTaYAfCH/h+29xoWR13R90oUBPsakU6CnCEOjJycTybLzaldbeCJ2z/TOiHIMgYVDYegUXug3q1CGCt98ow/pdxzGYlbIZ06Skc/QxfHBc6V+hI0skZ3fjJ0lHgdDs8cKXqEPqUNX+nSiZRxbLBGPAKKlMNIjzGmZUbK4Uo8x8gCZcU5+HMgqUM4qsf17DQumAWWAlyXL74WBlMSot+l4TBdoQBj0KuDjZZyigCokyrKN1isXUl7ZhklTTaG2jGPCK1ti6C5M4FnIZL6IgS8XHpdwNpAo1HKul+2LpQVaDRmGiQeUMF9NYfSSj2jhK9JryKhbFSpfrYlTIPGjCRVAMf7hEVk1ywdbHxcI98VWkIgo5tHa1KO8k6iwXNneIGUQWb7HdvohctAVqKd7COm3hXpDi7+5Nir9xssOyrTQpcdKWdZR0ZbsL8miEjQ8lT4COSQ7/iVPgQ1mkXI8t67T1iAIBFCBFSPoSCvpm6mHSVRGDrh901Zh+OpefhtzSFAoYlUwBozZJruEWJfEIoUBiwn8E12HpZ0d74TwNu0NprbxaXDsvFXSun1r1w1ajb0CRxLf/eoPxjeYkM6y1lZCylJYSVEgcP3NVUPbou+/jjnBSZkrt8k2VUfC/IDwxwQ+T1O6GQFHmilIryWo23PAMpKBQQr5EH0CSAAAa20lEQVRGLTKlu4JEC+SIoaBQYgocgc3LrMy4KQ15FB4uEIyz1ykCzd+OfIy/SZTY34d05w6aeAHav3a34VGGfiGPRdSzWzFKqgr65oqfAHfaPUUYi3fRD5qFtbhCcvXkCMhSLPmYSKCXSq0DnIcEwktBmgAFjfqe1r900Sf7EbkzfDyMq6gaqmm9m0TVDbWoFcbNHVGYJDL9gIdqrtigQ1LkYFfDG1pOQaFGms9AmotPa56lkp5YSDoANdQYjsuUcBW/BB0WYqlybDo2ZCGWLngGUW23p6YEGgq+1Wz0XHd1D6Z1cVSXzExWilZsuFW1qBYVHlsSRS90M1YkBIXy78bdnCZonIQnQqq/tE1+UAeXOm2LNDeVp5qiep4mF804Wuc1QUkukdKluJOFTEh6Cvkv7SxBW14Y18W7KAUlaIAk2pJAWl6jfOaDkpsSWwEPL6N1WgjuE95N+6nvybuql6Ila21d6meUt5GeJctkpeUunnA3dn8FuT+qza2JZgXJzZ8Vy4r6/Ejd3tewN2I9ZiVQkJ27aM0q/QQXXl35eZSc3ofs7VtQIq4f7UhyL1JUxT/JlTqE1ih3Omv5h7zLCUiKslxh63uhwwVZfecMqCgwkzh/6BiLyFhB+bSz6zEN3tueT522ouv+btrsQdgPLO9aPx9pOYmThyhgFEW4jp4+lQJG5UkLoPQ0DKYpzkHddennUF97XQw2p5BRXuHb2tUEjXQtt8ZRvR5aqYFd27Eu3pXX66VmWEm5q6N3g8DWRW5Y1iNVfo/oyWl9azzWTzYGs6KgoKW0qP56+yJnOa2tdafJa1JqzUa9QUpng/JV29gD5doJQ41RJ4WgUNHGYYZVkbtgZPWaPj5RV2WzBn8TktCEtKfxmysEhRrZzTeXJi8dhfsi3V0M9Zt4KHb5KbgJafmSW4dAr5Rambs//Ch0usONZtRevYJaS1PErUOqn1uip8AeXT3f5uJoji7F+mPnzA8PsL+DcdfdFLmYPgD6yp3Ytmcjsr83NaN3bDNkP8GN2sGljfj19m3SyrsNlbW0+dWTBbl/X6iVKNhPAaPihIBRKXDvFI3VBsE5i5GAsR/krsOba7fYrlhI8Wu+LgTG7MPUZkqoRPba5K6DVvWhFD0qmqzXOW+loCg8GTHkOj0idDQChEjYQqRm4ZeQgN2/W46cyxIKRGM60p5ZgYKevPDMhWvRoYWifduaRBfkh8kiPoKiK/vTOmDyYkDQTIqITP82mkc9trVUe+cbhP3A3ghuojxtxi6U3N8WMMqKUnsT5fIlA5eAIiwMqwWFlhSfzH05eOUIBbQyHY86B2DLKzHSHjq9bFbRV0cw54DVSKoWpSucyGrbEyWXAkWVNtt/Kr1V2A3ELsnM9N1epvGbm78eu/68pUfjWSmxHOXGepppS1GpDHyMCRCBm1ZqHVyGwt/fiyIet9A2B5dQWWf/h+7m7xBF2BX3ZSXLnKu36GJcZi6eqwcEg+DgTlWoETbfJkuAp1Jwmrs5pVZOLAQrqIUtyZUstAIgWlPTIGyB09vkloixgQS9tQQH0t8khdayTFc3K+s9G9usyR7wdqMyaiyvtRSvCdfrq+gw9QPaD1ew097s3GSjtlL0QpC5DhVD09f0qVLTuSViwKhKChgVNQ8xw6QC7pBtiSKQCxYvubuwN62J23ZbURSF1t24mWwjrQu+vZIOteJ6HJot9qT1q/Q+GNCuhI1kVRf0M3oWPIYILynblbUf9r7SljkU8ChL+AmC0HZN6qRlmPUwRd5WUjTnBVOQS5G328aa+msV4jpaFbmgCVsX2uCaYr/mVdIaZzEKMkVHnhCKrJ3F8JlArsfUN/SnLaMe967iJtrfXXg+adCtovcH/c+mOzpo+0HvaPX66pqdFDBqOcImCQGjfGkHY4lUY7DCgqJmu3tK3xG5h9Ga20p5bXUZl6jqdj7k6SasHbD8VnuSK4qo8jTq7fItnTTGz+Dem38OLxzSWro802DPmidIKY0lRKsxuQgLbsjHbfq2N6OiThwRwJOWjyjoTWbTMy0Eiho/f0AEirK5X7aNnWXSA2bHti32OhVIa2Cvt31zDS7GvVVEXejbLaa6KjTadI9sbiFnvIUI9GS+qKPZzkPgF+hDg/sbaKouRbnW8qX1QzMqu3jR8Cr1H4FgCdcQ51HhCO5fk1sfIKkmF5srYrnKQFr7enN3k0aVoxAkwULuQxGYhTJpKxxhlw3pRPvEii8YeuF1N0VCe9GKKusNKk9CoYVsDMKFDYGlUs1plAruXzLa1mi4WRApqfzGY9VXSwzKulc8Iqzoy11c3n6qVdj3VGinhw/c+9tlXQgYdYiGZhQwamxSqIS4FF3wslFdD6Q9o4VxhHlSRCFAdGPV0dYeksM88ysGz9/URyW6byf5teeLDYGIAhMQ3I0n1A/ecApSZIiETFGF7zAEjLo5mdqGWTTZ0d2zeXMVdH0VbeOgSV+NtN0U7IySe1AUVKY3irbTKReeaerXobH9fVM0YhRkQcH2j59CeyuTNTlOeLbI9fg7O0Y9FluuQ1mx4ZmTh1L/626ZiHgNJbv1g7YCb+5fj+HRiBs3TvyFd7OC4+ZqsPdVFDDqQFvAqHnSykzteZr4Fuql5Qi0l7NUUo0MMShe1RpU9XZELlUBWQ/DjVzjoowxQKTyDeJjQbRe1aiKdGpFjJ9xhvX7OhRaUVB0bcEraC2I0eZnhYSM1s8aFK6KCuk1vENDvMWgTlLpOgWREtf0uqgwabhUDqljepzRGBZtDQ32RryVsqWuHHTHKI5Ii8BHroCTxdhCAWVbPA+zhtVfEtakU/KnIJa9fr0rKNSFoZDmiqLbdiXAoOs7P4DAPX8UKXCLX6A/XB1voFmrQVl1AwbQRj7tCGtPnsAZ4Z3jOg4zpgeYoR2CqbMSRMtdXybncT/Fa3+kLWzo98ZTUwyBq+xcoabgCMTAe0Nm0dY+XSh7tCert2kwGlM5yII6kV76nVMgxkeOES21+rJsnLP2UW+lPd/EWWwP+KsEa3EXSVdlcP91CIS3RPwfZcRCTLQ2ndqajexCgwKvvmMp4q0NDBW0X7KpCJf3IkdQyGW0V++kmQalWlJEsugrzRmYZLxyFlqBAe1RqhrW9SdWsvheHqz6mvZgpPp9JiVDbfFhocnL01kG66OS9kpNsPyCuFM00FDh/jdTkCNrEWJ7KWO/X077EjYKs8iCpc9af2gTiqIP5wsTx6S8JDycbH2QJOyr2vsvcC9RkMJ11BAh1z3hSdwZYr2/ycm1192aRk+ueAYLE1l8yZrQp8maDFSpnNZLialVB72px0z9QZw5bfAwCJuzvAtlTwF3Cm5mb728LQqyPGQmImkv3UghOJfgepxtf0+GOtoeqERQ4N2mYPK91iYqyHrlZnqv7dQPenXjnRH32O/wxv/+Qfw9nmhl0rFXdfTBxWLAKOp7gju8lM7acgLF+YaZWv/J5Elg/k6lLcDiEwwTiHW5h/rGs2PYHPzX7w1c33j5QYT38SPaB5S7LVJBIcsXeJllc/bBgtGGxhYVfQ+6TZKpgiKBXxfODHFHWJcPfyvt/27w/xhKgacshhZyJZ6YREYYyVroYFkZvrwqnHTFgmlBiLYyKvak9b+m6XhOGYqEsRft1fs0be1jtXyKuBzW/tgYAkVF7fgYNv/6YDsfaygkj9M2P2IAWNo5wXukWSsVUzAixnK8IZZTvBOXhQBjstEIT57bRXAn33aFVbJ+8eAwKAMMVomai1YiNlu/mM/cRgSsPL5WCDh6wHdYIASPEj0FMiqrqB0ggaEk5K34Cv/+Rnii6KP86Mt4KmmEQal0DcDER1fS310oMBLF3dQhzxGIGRONaPrF0X6vffLNqt6K3WcFZc8DUVPfxFLaOkLt0lYTRab2TcJdk1/Hi0tor9oAaxJ44I6pv8PM4YGGgaNjMKImrsL8kcKbuBo5OTstXZPbgdBerxqDsjly7DOIp6ALVlNdNi4Is+OyYEyb/gzC2/y/KbryyOhVePruRDg1W7P60z6z372PU4ICTUr4wvvXYFpwREecL1Law6NfxNM/fhYRpr265Qj2Hj0iKtPKiJfw9I8WI0rVMTCTe8TjjtgXsXTR+3g6dqRV0aGjNXgXhHlHX9r827Anp/XMfXCG3CVzTlP9FORJUom5vBVZovZOe38uWY8kcqk0fIKVpAivxEMPGAbSdce2kitzH8j3QxRZnocqoT8IFuy5tMF7VzLQFh2H02htMuVxT1iNxc8to61bOkz3ctpPcNS81Xjw9c/wk9mGwWxXxfX1ubr9G/BtKd1vGkgk/dcmTE+iPYbbBt6kxPuMSUXSM9vw1O9oX05rDW/JQ7lGdKyjfQBT4WNtUqvXjVEj/pe7kLpsOb3raA/BdgVBCdWEFzDXyLOKJl46B3Sn9eKf/h0aQdkbloKUV9YifoyJ8uoWSgGnlmPuql146qlkY1CpXgvbUYDogiwwjkXC4mRx2xb7Rj02kbVyG/anCxGwFfCfvx6pi0mREqI5i4mUdorWO+m5rUiZ0VkDs0s/sCOyQVOUMWCUnt7X7pITpWTN3ZNm2KM4aCFSnlpCk7KG+yH3noqE51bTHrXUWpoE/G7PwUHT7AEnKHn1Pb8wAvON+7UoPFR45qFo2qOWJG2swgfZ1tei6kqqcEYYDnj4YekUlaTFt629xwurRQXYMyoca+M6FFtPXx+8vHgcnvBu7cI9uA7v7r0sWmsVIZHY/MhIzPeTt39PPCng0UMzx+HfKb6dFearpVh/XBhZyDEpOQ6b7vFDXPvkqgxBAT54YvYd+OIXCVghNbEy4G6WFYHqslBZJpzzRfD9LyOQrO9CknnPwKjHVmK4e5tHkNn1zYeQv/uQwbU7fjWmPraUlix2fHNl3gkInPZbJP46DXdN6eab65oAX2HbpVba3zZfansgK7Lz4duOQJfzX51oOLrBm9wMPGhD2pa6MpRfvd6/UWB7fGtqcfCd9fh3+G9w38hoPLRqMx6ihfFNZDVwpsFL9XeHkBs5pfuodT2ut78vqEZexip85LwGP6Z9XAVlNGoiDc4E5ZDa2hHFtdbqelL9lQycUyVh7oKtmEvX6duva0J5zh/xrwvC+mRrifZ5PUHKZuSLuIPKeGTJTixsNAa5ur4Tmz/diAtt7kWtZ7Dv8D5SQGbCO3Ahnn40BXrKC2cPUU59ZRp2X07E/LGB0pXV78QHO72xbN5ShA9Jwvx76UfWqAaaRXRt2xaocR8OmF1dk78Gm93W4LHEeIp8uxRL6QdqZwNNM7iazNBL7FpgUlIlynJOojUyAUrqN4ovz3bxkZQWv3dHSQHISBcDRhkdt8yKq0Tuu7+F+mVSDIJiMek/0zCJAucIg2i5sY36kq3Y8f4u+8ntn4r5T6ZA1TaJIGy/Ig4glYhM3QKfBW0i0lrLY+uQttPO2wjRRzP7m2JEzwmF/7xNWJ6kgda4z6e+Yhd2/N8mw6DVKEZdxkp8rFovKvg+CcvxIP2EjbV1jmQhM+kH3e6k1bsbadvVzVnIWLca7i+sxli6nwnLNiHhcbqfwviBrHntL25yTbeeKpF/IB1JsdRnopdj6Vup0FYbg1xRYKfD61da7p1rvbAuz8hd1Aim9bPCDxS0SdySyYXWkLb1vfNbsJv2Z7VIpZvw8QZPPPTMEqiDkzHrJfpRv9XRM61wMdHW+2QcY3BBnk7ralWiC13XrscKmgx5aG5URxMokrawBhe0hVHSK9sQ326Fvo6ij5cjM9d0sKdD+ccvYIdyHebTEgL17NV4jH76RpqIcqS9fY2cNBfMCNmlH1hQ78EBZ3i0T5JWo7ra2qRjD4rsp6xa2ptbDBhlbTKncAPSto7GTx5JgCrhBTxGPz29D+Rt/a6F3rkf/haZ1kyJvW0HTeoKYxEhNVWXSe/S0Ns6aOeCZ34SiR+ZeLJ4+hhe2EPHRuGj4A7fX11lKVamkfWxt3WaXJ+bdxWekSOw/hcjsLaJ6nI2uhK3NmDPjlx8IJpiraT6q/jzkRGIT1Ii7p4JODxFj+uiQbYVR3Zn4tmTHZGgKk4V490J3ng+2BWzUxIxe76Ql9a7ulBbaYxwYNd5KJLDrAaKun4uH8/ukOHteQEIigjDevqhSU9vBFJu2+bpz4manUnSYw990151icXLMa6YNO0O+tFbhK4T1nsIsTcMSW9Xpp1l6I+/KIL93nSEPzYDisAUJLyUYth6R2gfKbxnvgZiZiZICqL7diUy6Z03ibxTlOOWI5F+0Oko0BO5Mpu83rtbsi6LIM9KIX95Fi4bbCiS9fFBJiCXydo25pTBQeZIy96N6UZLx36cMleoAtXwpK17bpALqbBuocU0rwnHG60tuDFQ/JG1WfjTL19EyaM/xf2J0QjwdqaPRyGOZ3yCd/7ZhEXvklJ7K/SBlnM4+uVSXMhPxd0xiYjwC6aXOb2Jm2gQUkvrV6+exqnCnfjukpUBSd3X+DD9a0xLTEU8rVf1ljWhpvI0ck5txu7cM91HDBaUzc+AuZMXYrw6GEqqWxx0N1u6qjVcWIM/fXYBc++chegAyktiNtSdwzlyVdl9dCcwPr7LO6K/+j7+/I9sxI8T9rkdQ/vcUpArQV4ttbPsCLJztiKv4zttLKsWF44/j9cvzcO0cTMRNWwU/GmrH9fWWtR8X4XyqtM4d2EfjhZmd1m37kQ6yunlHDh8KoZ5bcZ5803lu7y69yf1x40Bo6x4+0Cbjr2vLoFmwZOIHx8L/6G+dB9qUEdraEuytiJj5y5y0+q9HO0luKnhHzbaOLDvXK5iGG1FY3JIW2LhFGYHQWhv0q3L8UndC5g0idrrT/tJtk0EkzXTcsauBuU7lmHT6RRM/BG5Y0dG0V6VpHi1EKPqClReOomS42QRz+xKUbSD2LYWQZbE3b85i9wZSxBPEYXVw8jqRB92HS370NI6v/L8g8ilgXtRFyMC3bHVeH9jJe6ZOwPB9A5XURlioujqHu0ve1sFspavEmc+XA0IUY8jY2ntNskpbDFFCpv2ch5Kjm7F4S/SDe77EkXoTq7DBy8exNh7UxE9lq73pmBnjjQRQnsY114VtgSidlJE276YbGiPgiwold24Hsu9SRkNHy3RArJId9qSSAet5auPmBejYFMqNmctQcKMmQgmjw+VECGrnvZKLSFOxyjA1p5iy/Lt0A8sC7XxiHM0Yox+sU0F2/HZt1a+ITYW16/ZtDuRIwaMshZMQYeqL5bjb6VLMHlOMu1xSs+HQkFeaLSGtvAgsj/fhJyCvnNrCYiOxggRSDUOpn2Bi6au+XYDRVvZqFWSk/cKskBGm76WnSq79na5CZl0RflYfEyLleTWm0j7unoKW+1oKvHxgSJsPN9dX2qlSMbZWN4YgWdo79loLzk8jQqm0vzl3lqHjX/PQsU94Vg0htbPelJeGheUnq/E9gyqq8QbG5K7akArcr87g/tKyvDEXcMxLUxFLsOkmJJCXHq1AYWFl/Hh4TKDO7RpMfo6fLCNxh1RQeQlR5ZaYX9cwU2ZJutLa+k6zff4OucytttzpqCrZvTRueacV5DxwQqMnTUDQ+n9Lmumbe0KKaDe9vUoH7EOMVbrpW/AV08iPT8FIdPmYlhYFJT0bXCi4KP15ZX0O4GKU7tRcqKrby6tyx6XILova7PTpLeXslo/n7jdCDjMnP+wpAraor2ISxXG0ZKLP4KChkgMEi1xNVYUokxrGkvdMg8fGQgEOrbP0Reuwa++3NcelXQgSDcwZVDAd+FO3EURNbWfp+LAPkMAnIEpK0vFBJgAE+glgagn8bc/PogRjtVIX7MUr2V05bXTy7puq8s9MHfNVvwykSbaC97Dcz//Bwr7RKn9IaC64pllk/H8cIok/PnXeDiLx4M/xF24Zep0J+vwr3+LQFkWTvzPkyjpyrp/yzSaG3KzBOw2V3+zAvB1TGDwEKAow+lbUU0Bm1RklfY2cVkdPG1gSZkAE2ACthEIuIOsieQi21TwBT76hhVa26jZkEuwgI8SzI5kpf1k+y2k0NrQds7CBHpAwG3iQvhTxNL6Y1twiRXaHpC7PbPKLxTaYG1qLEdpYfntSYhbzQRMCVDAl7xjKWStnUn7W27GkUwN82ECTIAJ3IIEPBB3Rzi1qxpHP/mEFS973uGwcYih+APiZAFbv+1Jlsu6lQgoZiB8ymjIGrJQsPfQwA1MeysxH+RtMV+ZMMibw+Izgb4mUIPKz9cipy4BLrRqVEbhtyyW8Pa1CFw+E2ACTKDPCdRi96p7sbvP67kNK8j7C3425y+3YcO5yUygBwS8nNGYvQVnLtKWhv0cw6QHUnLWAUSAldoBdDNYlEFCoO4Qzn9+aJAIy2IyASbABJgAE2ACTGCQESjfjYLPeVptkN21H1Rch/CosZKBon5QqbhyJsAEmAATYAJMgAkwASbABJgAE2ACNhDgQFE2QOIsTIAJMAEmwASYABNgAkyACTABJjAwCbBSOzDvC0vFBJgAE2ACTIAJMAEmwASYABNgAjYQYKXWBkichQkwASbABJgAE2ACTIAJMAEmwAQGJgFWagfmfWGpmAATYAJMgAkwASbABJgAE2ACTMAGAqzU2gCJszABJsAEmAATYAJMgAkwASbABJjAwCTASu3AvC8sFRNgAkyACTABJsAEmAATYAJMgAnYQICVWhsgcRYmwASYABNgAkyACTABJsAEmAATGJgEWKkdmPeFpWICTIAJMAEmwASYABNgAkyACTABGwiwUmsDJM7CBJgAE2ACTIAJMAEmwASYABNgAgOTACu1A/O+sFRMgAkwASbABJgAE2ACTIAJMAEmYAMB+fCw0XB0oJwt11B+oQwNN6SucoCTmwpu7m5wUbjAyckJcpkDbtzQo6WpEQ211dBq66GXvFaqPD7GBJgAE2ACTIAJMAEmwASYABNgAkyg9wTkokLbXXJQQDk0AJ5OnTM6OMghd/GAkn4eyu9x9XI5Glq6K4zPMwEmwASYABNgAkyACTABJsAEmAATsA8BeaW2Eb4ql25L0zfVora2Ho2NjWjWk4VW34objk5QuA/BkCGecFIMwVA/HTRXroH12m5xcgYmwASYABNgAkyACTABJsAEmAATsAMBeUNTa/fF3GjE9Sullvla9KhvaoCuRQa1nwdkgouy/Bpq9JZZ+QgTYAJMgAkwASbABJgAE2ACTIAJMAF7E/j/Meo0p3gtb94AAAAASUVORK5CYII=;" parent="1" vertex="1">
          <mxGeometry x="200" y="570" width="949" height="70" as="geometry" />
        </mxCell>
        <mxCell id="Y4W8C6CxUiJVroTrxwmG-5" value="" style="endArrow=classic;html=1;rounded=0;" parent="1" edge="1">
          <mxGeometry width="50" height="50" relative="1" as="geometry">
            <mxPoint x="940" y="660" as="sourcePoint" />
            <mxPoint x="270" y="650" as="targetPoint" />
            <Array as="points">
              <mxPoint x="910" y="800" />
              <mxPoint x="330" y="810" />
            </Array>
          </mxGeometry>
        </mxCell>
        <mxCell id="Y4W8C6CxUiJVroTrxwmG-6" value="OVERWRITE" style="text;html=1;strokeColor=none;fillColor=none;align=center;verticalAlign=middle;whiteSpace=wrap;rounded=0;" parent="1" vertex="1">
          <mxGeometry x="550" y="690" width="60" height="30" as="geometry" />
        </mxCell>
        <mxCell id="Y4W8C6CxUiJVroTrxwmG-7" value="MOSTLY" style="text;html=1;strokeColor=none;fillColor=none;align=center;verticalAlign=middle;whiteSpace=wrap;rounded=0;" parent="1" vertex="1">
          <mxGeometry x="230" y="200" width="60" height="30" as="geometry" />
        </mxCell>
        <mxCell id="KhbLEa4_fb1aOMbs3UsQ-1" value="DATAFRAME" style="rounded=0;whiteSpace=wrap;html=1;fontSize=22;" parent="1" vertex="1">
          <mxGeometry x="40" y="1260" width="520" height="560" as="geometry" />
        </mxCell>
        <mxCell id="KhbLEa4_fb1aOMbs3UsQ-4" value="1" style="edgeStyle=orthogonalEdgeStyle;rounded=0;orthogonalLoop=1;jettySize=auto;html=1;" parent="1" source="KhbLEa4_fb1aOMbs3UsQ-2" edge="1">
          <mxGeometry relative="1" as="geometry">
            <mxPoint x="780" y="1340" as="targetPoint" />
          </mxGeometry>
        </mxCell>
        <mxCell id="KhbLEa4_fb1aOMbs3UsQ-2" value="COUNTRY&lt;br&gt;&lt;br&gt;PRT (str)&lt;br&gt;SPA (str)&lt;br&gt;DEU&lt;br&gt;USA&lt;br&gt;...." style="rounded=0;whiteSpace=wrap;html=1;fontSize=22;verticalAlign=top;" parent="1" vertex="1">
          <mxGeometry x="440" y="1260" width="120" height="560" as="geometry" />
        </mxCell>
        <mxCell id="KhbLEa4_fb1aOMbs3UsQ-5" value="" style="endArrow=classic;html=1;rounded=0;entryX=0.5;entryY=0;entryDx=0;entryDy=0;" parent="1" target="KhbLEa4_fb1aOMbs3UsQ-6" edge="1">
          <mxGeometry width="50" height="50" relative="1" as="geometry">
            <mxPoint x="920" y="1290" as="sourcePoint" />
            <mxPoint x="620" y="1190" as="targetPoint" />
            <Array as="points">
              <mxPoint x="660" y="1160" />
            </Array>
          </mxGeometry>
        </mxCell>
        <mxCell id="KhbLEa4_fb1aOMbs3UsQ-6" value="NEW COLUMN" style="rounded=0;whiteSpace=wrap;html=1;fontSize=22;verticalAlign=top;" parent="1" vertex="1">
          <mxGeometry x="320" y="1260" width="120" height="560" as="geometry" />
        </mxCell>
        <mxCell id="gztSQmRyWe7y5MC-XnZo-1" value="" style="shape=cylinder3;whiteSpace=wrap;html=1;boundedLbl=1;backgroundOutline=1;size=15;" vertex="1" parent="1">
          <mxGeometry x="160" y="1920" width="240" height="400" as="geometry" />
        </mxCell>
        <mxCell id="gztSQmRyWe7y5MC-XnZo-4" style="edgeStyle=orthogonalEdgeStyle;rounded=0;orthogonalLoop=1;jettySize=auto;html=1;entryX=0;entryY=0.5;entryDx=0;entryDy=0;" edge="1" parent="1" source="gztSQmRyWe7y5MC-XnZo-2" target="gztSQmRyWe7y5MC-XnZo-3">
          <mxGeometry relative="1" as="geometry" />
        </mxCell>
        <mxCell id="gztSQmRyWe7y5MC-XnZo-2" value="country" style="rounded=0;whiteSpace=wrap;html=1;verticalAlign=middle;horizontal=0;" vertex="1" parent="1">
          <mxGeometry x="330" y="1930" width="30" height="380" as="geometry" />
        </mxCell>
        <mxCell id="gztSQmRyWe7y5MC-XnZo-3" value="germany&lt;br&gt;usa&lt;br&gt;france&lt;br&gt;england" style="rounded=0;whiteSpace=wrap;html=1;verticalAlign=middle;horizontal=1;" vertex="1" parent="1">
          <mxGeometry x="490" y="2110" width="120" height="60" as="geometry" />
        </mxCell>
        <mxCell id="gztSQmRyWe7y5MC-XnZo-5" value="" style="shape=cylinder3;whiteSpace=wrap;html=1;boundedLbl=1;backgroundOutline=1;size=15;" vertex="1" parent="1">
          <mxGeometry x="690" y="1890" width="240" height="400" as="geometry" />
        </mxCell>
        <mxCell id="gztSQmRyWe7y5MC-XnZo-6" value="loop" style="text;html=1;strokeColor=none;fillColor=none;align=center;verticalAlign=middle;whiteSpace=wrap;rounded=0;" vertex="1" parent="1">
          <mxGeometry x="990" y="1960" width="60" height="30" as="geometry" />
        </mxCell>
        <mxCell id="gztSQmRyWe7y5MC-XnZo-7" value="" style="shape=cylinder3;whiteSpace=wrap;html=1;boundedLbl=1;backgroundOutline=1;size=15;" vertex="1" parent="1">
          <mxGeometry x="1083" y="1900" width="240" height="180" as="geometry" />
        </mxCell>
        <mxCell id="gztSQmRyWe7y5MC-XnZo-8" value="" style="shape=cylinder3;whiteSpace=wrap;html=1;boundedLbl=1;backgroundOutline=1;size=15;" vertex="1" parent="1">
          <mxGeometry x="1083" y="2080" width="240" height="80" as="geometry" />
        </mxCell>
        <mxCell id="gztSQmRyWe7y5MC-XnZo-9" value="" style="shape=cylinder3;whiteSpace=wrap;html=1;boundedLbl=1;backgroundOutline=1;size=15;" vertex="1" parent="1">
          <mxGeometry x="1083" y="2150" width="240" height="80" as="geometry" />
        </mxCell>
        <mxCell id="gztSQmRyWe7y5MC-XnZo-10" value="" style="shape=cylinder3;whiteSpace=wrap;html=1;boundedLbl=1;backgroundOutline=1;size=15;" vertex="1" parent="1">
          <mxGeometry x="1083" y="2230" width="240" height="80" as="geometry" />
        </mxCell>
        <mxCell id="gztSQmRyWe7y5MC-XnZo-11" value="" style="shape=cylinder3;whiteSpace=wrap;html=1;boundedLbl=1;backgroundOutline=1;size=15;" vertex="1" parent="1">
          <mxGeometry x="1400" y="2010" width="240" height="45" as="geometry" />
        </mxCell>
        <mxCell id="gztSQmRyWe7y5MC-XnZo-12" value="" style="shape=cylinder3;whiteSpace=wrap;html=1;boundedLbl=1;backgroundOutline=1;size=15;" vertex="1" parent="1">
          <mxGeometry x="1390" y="2097.5" width="240" height="45" as="geometry" />
        </mxCell>
        <mxCell id="gztSQmRyWe7y5MC-XnZo-13" value="" style="shape=cylinder3;whiteSpace=wrap;html=1;boundedLbl=1;backgroundOutline=1;size=15;" vertex="1" parent="1">
          <mxGeometry x="1390" y="2167.5" width="240" height="45" as="geometry" />
        </mxCell>
        <mxCell id="gztSQmRyWe7y5MC-XnZo-14" value="" style="shape=cylinder3;whiteSpace=wrap;html=1;boundedLbl=1;backgroundOutline=1;size=15;" vertex="1" parent="1">
          <mxGeometry x="1390" y="2245" width="240" height="45" as="geometry" />
        </mxCell>
        <mxCell id="gztSQmRyWe7y5MC-XnZo-15" style="edgeStyle=orthogonalEdgeStyle;rounded=0;orthogonalLoop=1;jettySize=auto;html=1;entryX=0.035;entryY=0.47;entryDx=0;entryDy=0;entryPerimeter=0;" edge="1" parent="1" source="gztSQmRyWe7y5MC-XnZo-7" target="gztSQmRyWe7y5MC-XnZo-11">
          <mxGeometry relative="1" as="geometry" />
        </mxCell>
        <mxCell id="gztSQmRyWe7y5MC-XnZo-16" style="edgeStyle=orthogonalEdgeStyle;rounded=0;orthogonalLoop=1;jettySize=auto;html=1;entryX=0;entryY=0.5;entryDx=0;entryDy=0;entryPerimeter=0;" edge="1" parent="1" source="gztSQmRyWe7y5MC-XnZo-8" target="gztSQmRyWe7y5MC-XnZo-12">
          <mxGeometry relative="1" as="geometry" />
        </mxCell>
        <mxCell id="gztSQmRyWe7y5MC-XnZo-17" style="edgeStyle=orthogonalEdgeStyle;rounded=0;orthogonalLoop=1;jettySize=auto;html=1;entryX=0;entryY=0;entryDx=0;entryDy=18.75;entryPerimeter=0;" edge="1" parent="1" source="gztSQmRyWe7y5MC-XnZo-9" target="gztSQmRyWe7y5MC-XnZo-13">
          <mxGeometry relative="1" as="geometry" />
        </mxCell>
        <mxCell id="gztSQmRyWe7y5MC-XnZo-18" style="edgeStyle=orthogonalEdgeStyle;rounded=0;orthogonalLoop=1;jettySize=auto;html=1;entryX=0.069;entryY=0.563;entryDx=0;entryDy=0;entryPerimeter=0;" edge="1" parent="1" source="gztSQmRyWe7y5MC-XnZo-10" target="gztSQmRyWe7y5MC-XnZo-14">
          <mxGeometry relative="1" as="geometry" />
        </mxCell>
        <mxCell id="gztSQmRyWe7y5MC-XnZo-19" value="" style="shape=cylinder3;whiteSpace=wrap;html=1;boundedLbl=1;backgroundOutline=1;size=15;" vertex="1" parent="1">
          <mxGeometry x="1010" y="2390" width="240" height="45" as="geometry" />
        </mxCell>
        <mxCell id="gztSQmRyWe7y5MC-XnZo-25" style="edgeStyle=orthogonalEdgeStyle;rounded=0;orthogonalLoop=1;jettySize=auto;html=1;" edge="1" parent="1" source="gztSQmRyWe7y5MC-XnZo-20">
          <mxGeometry relative="1" as="geometry">
            <mxPoint x="1350" y="2520" as="targetPoint" />
          </mxGeometry>
        </mxCell>
        <mxCell id="gztSQmRyWe7y5MC-XnZo-20" value="" style="shape=cylinder3;whiteSpace=wrap;html=1;boundedLbl=1;backgroundOutline=1;size=15;" vertex="1" parent="1">
          <mxGeometry x="1000" y="2477.5" width="240" height="45" as="geometry" />
        </mxCell>
        <mxCell id="gztSQmRyWe7y5MC-XnZo-21" value="" style="shape=cylinder3;whiteSpace=wrap;html=1;boundedLbl=1;backgroundOutline=1;size=15;" vertex="1" parent="1">
          <mxGeometry x="1000" y="2547.5" width="240" height="45" as="geometry" />
        </mxCell>
        <mxCell id="gztSQmRyWe7y5MC-XnZo-27" style="edgeStyle=orthogonalEdgeStyle;rounded=0;orthogonalLoop=1;jettySize=auto;html=1;" edge="1" parent="1" source="gztSQmRyWe7y5MC-XnZo-22" target="gztSQmRyWe7y5MC-XnZo-23">
          <mxGeometry relative="1" as="geometry" />
        </mxCell>
        <mxCell id="gztSQmRyWe7y5MC-XnZo-22" value="" style="shape=cylinder3;whiteSpace=wrap;html=1;boundedLbl=1;backgroundOutline=1;size=15;" vertex="1" parent="1">
          <mxGeometry x="1000" y="2625" width="240" height="45" as="geometry" />
        </mxCell>
        <mxCell id="gztSQmRyWe7y5MC-XnZo-23" value="4000" style="shape=cylinder3;whiteSpace=wrap;html=1;boundedLbl=1;backgroundOutline=1;size=15;" vertex="1" parent="1">
          <mxGeometry x="1350" y="2470" width="240" height="142.5" as="geometry" />
        </mxCell>
        <mxCell id="gztSQmRyWe7y5MC-XnZo-24" style="edgeStyle=orthogonalEdgeStyle;rounded=0;orthogonalLoop=1;jettySize=auto;html=1;entryX=0.01;entryY=0.365;entryDx=0;entryDy=0;entryPerimeter=0;" edge="1" parent="1" source="gztSQmRyWe7y5MC-XnZo-19" target="gztSQmRyWe7y5MC-XnZo-23">
          <mxGeometry relative="1" as="geometry" />
        </mxCell>
        <mxCell id="gztSQmRyWe7y5MC-XnZo-26" style="edgeStyle=orthogonalEdgeStyle;rounded=0;orthogonalLoop=1;jettySize=auto;html=1;entryX=0;entryY=0;entryDx=0;entryDy=99.375;entryPerimeter=0;" edge="1" parent="1" source="gztSQmRyWe7y5MC-XnZo-21" target="gztSQmRyWe7y5MC-XnZo-23">
          <mxGeometry relative="1" as="geometry" />
        </mxCell>
      </root>
    </mxGraphModel>
  </diagram>
</mxfile>
